HIERARCHY
ROOT Hips
{
    OFFSET   0.000000   0.000000   0.000000
    CHANNELS 6 Xposition Yposition Zposition Zrotation Xrotation Yrotation
    JOINT Chest
    {
        OFFSET   0.000000   8.007230   0.000000
        CHANNELS 3 Zrotation Xrotation Yrotation
        JOINT Chest2
        {
            OFFSET   0.000000  22.077100   0.000000
            CHANNELS 3 Zrotation Xrotation Yrotation
            JOINT Neck
            {
                OFFSET   0.000000  23.255100   0.000000
                CHANNELS 3 Zrotation Xrotation Yrotation
                JOINT Head
                {
                    OFFSET   0.000000  14.370100   1.956600
                    CHANNELS 3 Zrotation Xrotation Yrotation
                    End Site
                    {
                        OFFSET   0.000000  19.566000   0.000000
                    }
                }
            }
            JOINT LeftCollar
            {
                OFFSET   3.911900  19.017000  -0.467063
                CHANNELS 3 Zrotation Xrotation Yrotation
                JOINT LeftShoulder
                {
                    OFFSET  10.383700   0.000000   0.000000
                    CHANNELS 3 Zrotation Xrotation Yrotation
                    JOINT LeftElbow
                    {
                        OFFSET  26.662100   0.001193   0.000980
                        CHANNELS 3 Zrotation Xrotation Yrotation
                        JOINT LeftWrist
                        {
                            OFFSET  28.869000  -0.000059  -0.000082
                            CHANNELS 3 Zrotation Xrotation Yrotation
                            JOINT LeftFinger0
                            {
                                OFFSET   2.044650  -2.323450   3.252850
                                CHANNELS 3 Zrotation Xrotation Yrotation
                                JOINT LeftFinger01
                                {
                                    OFFSET   3.088130   0.000000   0.000000
                                    CHANNELS 3 Zrotation Xrotation Yrotation
                                    JOINT LeftFinger02
                                    {
                                        OFFSET   2.639460   0.000000   0.000000
                                        CHANNELS 3 Zrotation Xrotation Yrotation
                                        End Site
                                        {
                                            OFFSET   2.582190   0.000000   0.000000
                                        }
                                    }
                                }
                            }
                            JOINT LeftFinger1
                            {
                                OFFSET   8.364480   0.000000   3.252850
                                CHANNELS 3 Zrotation Xrotation Yrotation
                                JOINT LeftFinger11
                                {
                                    OFFSET   4.646930   0.000000   0.000000
                                    CHANNELS 3 Zrotation Xrotation Yrotation
                                    JOINT LeftFinger12
                                    {
                                        OFFSET   2.323470   0.000000   0.000000
                                        CHANNELS 3 Zrotation Xrotation Yrotation
                                        End Site
                                        {
                                            OFFSET   2.273050   0.000000   0.000000
                                        }
                                    }
                                }
                            }
                            JOINT LeftFinger2
                            {
                                OFFSET   8.364490   0.000016   1.078090
                                CHANNELS 3 Zrotation Xrotation Yrotation
                                JOINT LeftFinger21
                                {
                                    OFFSET   5.111610   0.000000   0.000000
                                    CHANNELS 3 Zrotation Xrotation Yrotation
                                    JOINT LeftFinger22
                                    {
                                        OFFSET   2.788150   0.000016   0.000000
                                        CHANNELS 3 Zrotation Xrotation Yrotation
                                        End Site
                                        {
                                            OFFSET   2.727660   0.000000   0.000000
                                        }
                                    }
                                }
                            }
                            JOINT LeftFinger3
                            {
                                OFFSET   7.899780   0.000015  -1.078090
                                CHANNELS 3 Zrotation Xrotation Yrotation
                                JOINT LeftFinger31
                                {
                                    OFFSET   4.646930   0.000000   0.000000
                                    CHANNELS 3 Zrotation Xrotation Yrotation
                                    JOINT LeftFinger32
                                    {
                                        OFFSET   2.323470   0.000000   0.000000
                                        CHANNELS 3 Zrotation Xrotation Yrotation
                                        End Site
                                        {
                                            OFFSET   2.273050   0.000000   0.000000
                                        }
                                    }
                                }
                            }
                            JOINT LeftFinger4
                            {
                                OFFSET   7.435090   0.000000  -3.252850
                                CHANNELS 3 Zrotation Xrotation Yrotation
                                JOINT LeftFinger41
                                {
                                    OFFSET   3.717550   0.000000   0.000000
                                    CHANNELS 3 Zrotation Xrotation Yrotation
                                    JOINT LeftFinger42
                                    {
                                        OFFSET   1.858770   0.000000   0.000000
                                        CHANNELS 3 Zrotation Xrotation Yrotation
                                        End Site
                                        {
                                            OFFSET   1.818440   0.000000   0.000000
                                        }
                                    }
                                }
                            }
                        }
                    }
                }
            }
            JOINT RightCollar
            {
                OFFSET  -3.911910  19.017000  -0.467062
                CHANNELS 3 Zrotation Xrotation Yrotation
                JOINT RightShoulder
                {
                    OFFSET -10.383700   0.000014   0.000000
                    CHANNELS 3 Zrotation Xrotation Yrotation
                    JOINT RightElbow
                    {
                        OFFSET -26.662100   0.001225   0.001091
                        CHANNELS 3 Zrotation Xrotation Yrotation
                        JOINT RightWrist
                        {
                            OFFSET -28.869000  -0.000020  -0.000085
                            CHANNELS 3 Zrotation Xrotation Yrotation
                            JOINT RightFinger0
                            {
                                OFFSET  -2.044650  -2.323490   3.252850
                                CHANNELS 3 Zrotation Xrotation Yrotation
                                JOINT RightFinger01
                                {
                                    OFFSET  -3.088130   0.000000   0.000000
                                    CHANNELS 3 Zrotation Xrotation Yrotation
                                    JOINT RightFinger02
                                    {
                                        OFFSET  -2.639460   0.000000   0.000000
                                        CHANNELS 3 Zrotation Xrotation Yrotation
                                        End Site
                                        {
                                            OFFSET  -2.582190   0.000000   0.000000
                                        }
                                    }
                                }
                            }
                            JOINT RightFinger1
                            {
                                OFFSET  -8.364480   0.000000   3.252850
                                CHANNELS 3 Zrotation Xrotation Yrotation
                                JOINT RightFinger11
                                {
                                    OFFSET  -4.646930   0.000000   0.000000
                                    CHANNELS 3 Zrotation Xrotation Yrotation
                                    JOINT RightFinger12
                                    {
                                        OFFSET  -2.323470   0.000000   0.000000
                                        CHANNELS 3 Zrotation Xrotation Yrotation
                                        End Site
                                        {
                                            OFFSET  -2.273050   0.000000   0.000000
                                        }
                                    }
                                }
                            }
                            JOINT RightFinger2
                            {
                                OFFSET  -8.364480   0.000000   1.078090
                                CHANNELS 3 Zrotation Xrotation Yrotation
                                JOINT RightFinger21
                                {
                                    OFFSET  -5.111620   0.000000   0.000000
                                    CHANNELS 3 Zrotation Xrotation Yrotation
                                    JOINT RightFinger22
                                    {
                                        OFFSET  -2.788160   0.000000   0.000000
                                        CHANNELS 3 Zrotation Xrotation Yrotation
                                        End Site
                                        {
                                            OFFSET  -2.727660   0.000000   0.000000
                                        }
                                    }
                                }
                            }
                            JOINT RightFinger3
                            {
                                OFFSET  -7.899780   0.000000  -1.078090
                                CHANNELS 3 Zrotation Xrotation Yrotation
                                JOINT RightFinger31
                                {
                                    OFFSET  -4.646930   0.000000   0.000000
                                    CHANNELS 3 Zrotation Xrotation Yrotation
                                    JOINT RightFinger32
                                    {
                                        OFFSET  -2.323470   0.000000   0.000000
                                        CHANNELS 3 Zrotation Xrotation Yrotation
                                        End Site
                                        {
                                            OFFSET  -2.273050   0.000000   0.000000
                                        }
                                    }
                                }
                            }
                            JOINT RightFinger4
                            {
                                OFFSET  -7.435090   0.000000  -3.252850
                                CHANNELS 3 Zrotation Xrotation Yrotation
                                JOINT RightFinger41
                                {
                                    OFFSET  -3.717550   0.000000   0.000000
                                    CHANNELS 3 Zrotation Xrotation Yrotation
                                    JOINT RightFinger42
                                    {
                                        OFFSET  -1.858760   0.000000   0.000000
                                        CHANNELS 3 Zrotation Xrotation Yrotation
                                        End Site
                                        {
                                            OFFSET  -1.818440   0.000000   0.000000
                                        }
                                    }
                                }
                            }
                        }
                    }
                }
            }
        }
    }
    JOINT LeftHip
    {
        OFFSET   9.783030   0.000000   0.000000
        CHANNELS 3 Zrotation Xrotation Yrotation
        JOINT LeftKnee
        {
            OFFSET   0.000063 -41.789100   0.000608
            CHANNELS 3 Zrotation Xrotation Yrotation
            JOINT LeftAnkle
            {
                OFFSET   0.000048 -41.133200  -0.000184
                CHANNELS 3 Zrotation Xrotation Yrotation
                JOINT LeftToe
                {
                    OFFSET   0.000000  -6.358960  14.674500
                    CHANNELS 3 Zrotation Xrotation Yrotation
                    End Site
                    {
                        OFFSET   0.000000   0.000000   3.913200
                    }
                }
            }
        }
    }
    JOINT RightHip
    {
        OFFSET  -9.783030   0.000000   0.000000
        CHANNELS 3 Zrotation Xrotation Yrotation
        JOINT RightKnee
        {
            OFFSET   0.000071 -41.789100   0.001239
            CHANNELS 3 Zrotation Xrotation Yrotation
            JOINT RightAnkle
            {
                OFFSET   0.000037 -41.133200  -0.000166
                CHANNELS 3 Zrotation Xrotation Yrotation
                JOINT RightToe
                {
                    OFFSET   0.000000  -6.358960  14.674500
                    CHANNELS 3 Zrotation Xrotation Yrotation
                    End Site
                    {
                        OFFSET   0.000000   0.000000   3.913200
                    }
                }
            }
        }
    }
}
MOTION
Frames: 6
Frame Time:   0.016667
 -2.694640  89.568500  -3.009320  -2.718700  -8.672540  -5.448510   0.635586   5.400120   0.143422   1.266030  10.801500   0.227876   1.680550   0.510519  -0.018981   2.760320   1.042770   6.853540  -3.569540  -0.847790   3.703120 -73.686200  25.976000  -3.115850  -2.029160  -5.887030 -17.775200  15.230200  -8.171210   4.509000  36.474700  30.669900 -60.559600 -34.479000   0.001133   0.000850 -12.247000   0.004079  -0.002064 -30.926800   5.271940  -8.719090 -25.632900  -0.004806  -0.008433 -17.952900  -0.002540  -0.013220 -28.716500   2.050870  -3.736270 -41.897300  -0.013869   0.005839 -27.903600  -0.005957  -0.004394 -28.577100   1.669410  -3.078670 -37.814500   0.004267   0.001346 -25.184400  -0.002539  -0.003790 -32.891700   0.705518  -1.091440 -49.341100   0.005771  -0.003297 -32.865600  -0.002159  -0.005136   9.233670   1.440650   9.579860  65.879100  22.320900  -3.933140  -1.631380  -2.026560  14.746300 -11.336400 -16.978200   2.057790 -39.919900  21.309200  58.684700  18.605700   0.015191  -0.005017   4.302870   0.006423  -0.001857  29.581600   8.384520  14.406400  25.071700   0.009102  -0.011999  17.550200   0.003208  -0.009935  32.710900   4.880430   7.554330  49.549400   0.000236  -0.003697  33.000000  -0.003513  -0.004156  28.793800   0.464754   0.845676  42.078100   0.006958  -0.005055  28.024000  -0.011215  -0.005589  39.324400  -0.881311  -1.075330  58.999100  -0.000213  -0.006192  39.293400  -0.004748  -0.005600   3.002270   9.734970   4.533050   1.425140   0.473510   8.563250  -2.293520  -1.660960   1.063530  -0.000000   0.000000  -0.000000   4.609530   7.509810   2.468340  -1.244440   4.423420  -6.776260  -0.823987  -4.392230  -1.608000  -0.000000   0.000000  -0.000000
 -2.681590  89.568400  -3.025980  -2.729840  -8.745520  -5.407720   0.635696   5.449370   0.138397   1.266980  10.899900   0.217199   1.693300   0.515322  -0.018975   2.781860   1.048090   6.783370  -3.556890  -0.873869   3.696680 -73.662000  26.006000  -3.157080  -2.064850  -5.887480 -17.767900  15.226100  -8.173230   4.509030  36.468400  30.667600 -60.567600 -34.484900   0.001100   0.000792 -12.247000   0.004074  -0.002075 -30.934300   5.267720  -8.709000 -25.638300  -0.004773  -0.008450 -17.952900  -0.002518  -0.013241 -28.717800   2.041140  -3.718480 -41.890400  -0.013869   0.005837 -27.899000  -0.005960  -0.004360 -28.577300   1.669380  -3.072000 -37.809500   0.004270   0.001348 -25.181000  -0.002539  -0.003764 -32.887100   0.705464  -1.091350 -49.337300   0.005775  -0.003279 -32.861100  -0.002158  -0.005122   9.245180   1.348930   9.546430  65.883500  22.415100  -3.882320  -1.636930  -2.002710  14.754800 -11.355300 -16.985200   2.079000 -39.958300  21.380200  58.733200  18.575200   0.015215  -0.005018   4.287620   0.006367  -0.001812  29.583700   8.393520  14.420200  25.075300   0.009099  -0.011987  17.552700   0.003202  -0.009920  32.718100   4.880560   7.551800  49.560000   0.000222  -0.003671  33.007000  -0.003497  -0.004111  28.793500   0.469340   0.854022  42.084800   0.006927  -0.005027  28.028500  -0.011199  -0.005548  39.325000  -0.881311  -1.075330  58.999900  -0.000202  -0.006157  39.293900  -0.004712  -0.005566   2.999430   9.785390   4.533440   1.423490   0.479265   8.536480  -2.279460  -1.649510   1.044740  -0.000000   0.000000   0.000000   4.647930   7.518760   2.487370  -1.302480   4.544930  -6.741800  -0.767594  -4.478290  -1.692040   0.000000   0.000000  -0.000000
 -2.660770  89.568300  -3.051630  -2.749580  -8.874040  -5.344450   0.634874   5.534210   0.127018   1.266290  11.069500   0.193447   1.715380   0.522790  -0.018965   2.818940   1.057500   6.657590  -3.533940  -0.912930   3.690260 -73.621700  26.069200  -3.230940  -2.115210  -5.889510 -17.750100  15.217200  -8.175240   4.509050  36.462100  30.672800 -60.589300 -34.493900   0.001020   0.000692 -12.247000   0.004058  -0.002111 -30.945800   5.263500  -8.698920 -25.647000  -0.004699  -0.008488 -17.952900  -0.002472  -0.013291 -28.719500   2.028400  -3.695280 -41.874000  -0.013868   0.005836 -27.888000  -0.005965  -0.004285 -28.577600   1.669290  -3.065330 -37.801400   0.004277   0.001350 -25.175700  -0.002539  -0.003702 -32.879800   0.705356  -1.091160 -49.330000   0.005785  -0.003229 -32.853800  -0.002157  -0.005084   9.268450   1.188620   9.495040  65.879100  22.632000  -3.789510  -1.649690  -1.938770  14.787300 -11.424000 -16.992200   2.100220 -40.002700  21.507300  58.836100  18.521400   0.015265  -0.005024   4.260690   0.006237  -0.001711  29.598200   8.422000  14.458600  25.092700   0.009093  -0.011958  17.564900   0.003188  -0.009879  32.738100   4.880740   7.544620  49.589700   0.000190  -0.003610  33.026800  -0.003458  -0.004008  28.792800   0.488289   0.888472  42.127600   0.006856  -0.004967  28.057000  -0.011160  -0.005455  39.328900  -0.881311  -1.075330  59.005700  -0.000181  -0.006076  39.297700  -0.004630  -0.005484   2.996360   9.877270   4.534410   1.421080   0.491163   8.492030  -2.257300  -1.632950   1.016670  -0.000000   0.000000   0.000000   4.712340   7.540580   2.507730  -1.395500   4.749430  -6.698150  -0.676265  -4.622350  -1.809700  -0.000000   0.000000   0.000000
 -2.646320  89.568100  -3.067440  -2.766220  -8.990550  -5.294990   0.631534   5.606490   0.111363   1.260980  11.213900   0.161460   1.735480   0.527245  -0.018953   2.852050   1.065710   6.538330  -3.509000  -0.934562   3.693110 -73.602000  26.147800  -3.300690  -2.139240  -5.912650 -17.723200  15.204000  -8.162750   4.505980  36.472400  30.701000 -60.624400 -34.497100   0.000889   0.000596 -12.247800   0.004027  -0.002177 -30.952600   5.266600  -8.702310 -25.652900  -0.004596  -0.008539 -17.955900  -0.002411  -0.013369 -28.719900   2.025740  -3.690490 -41.848700  -0.013878   0.005839 -27.871200  -0.005971  -0.004182 -28.577500   1.669140  -3.071580 -37.794400   0.004289   0.001348 -25.171500  -0.002540  -0.003611 -32.873500   0.705214  -1.090920 -49.320000   0.005797  -0.003146 -32.847400  -0.002157  -0.005022   9.296510   1.039820   9.456590  65.862300  22.915000  -3.703730  -1.642310  -1.834500  14.838500 -11.559600 -16.947000   2.091390 -40.003300  21.630800  58.999500  18.489600   0.015326  -0.005052   4.244780   0.006046  -0.001572  29.636200   8.470520  14.516100  25.132600   0.009086  -0.011917  17.592800   0.003163  -0.009808  32.773300   4.880860   7.531960  49.641800   0.000141  -0.003523  33.061500  -0.003392  -0.003861  28.791700   0.524877   0.954939  42.241300   0.006752  -0.004887  28.132700  -0.011102  -0.005322  39.361800  -0.890227  -1.084920  59.055200  -0.000156  -0.005954  39.330700  -0.004513  -0.005365   2.997370   9.964870   4.537870   1.419130   0.506920   8.454020  -2.242850  -1.625130   1.000760   0.000000   0.000000   0.000000   4.762780   7.572720   2.508750  -1.461140   4.915950  -6.689150  -0.609583  -4.740320  -1.860000  -0.000000   0.000000  -0.000000
 -2.632440  89.568000  -3.081190  -2.788150  -9.116760  -5.268750   0.626418   5.684920   0.092579   1.252900  11.370600   0.123253   1.755320   0.531837  -0.018941   2.884540   1.075430   6.408510  -3.487180  -0.951655   3.695960 -73.578600  26.241400  -3.376930  -2.165050  -5.957230 -17.693300  15.188200  -8.141710   4.496690  36.475000  30.729300 -60.669000 -34.504400   0.000749   0.000514 -12.252200   0.003988  -0.002260 -30.959600   5.273230  -8.710000 -25.659400  -0.004478  -0.008601 -17.961600  -0.002342  -0.013463 -28.720200   2.024400  -3.688080 -41.820900  -0.013897   0.005846 -27.852700  -0.005978  -0.004064 -28.577400   1.669000  -3.077840 -37.790400   0.004305   0.001347 -25.169200  -0.002541  -0.003507 -32.869900   0.705087  -1.090700 -49.313400   0.005813  -0.003046 -32.843700  -0.002157  -0.004945   9.338640   0.891994   9.435960  65.839600  23.303400  -3.597020  -1.624890  -1.706040  14.937700 -11.730300 -16.901900   2.082560 -39.986800  21.728600  59.169800  18.419100   0.015390  -0.005075   4.209540   0.005831  -0.001418  29.681100   8.540330  14.604000  25.182100   0.009078  -0.011869  17.627400   0.003132  -0.009725  32.814400   4.880850   7.517140  49.702800   0.000087  -0.003429  33.102000  -0.003323  -0.003696  28.790000   0.579660   1.054510  42.366800   0.006633  -0.004802  28.216300  -0.011032  -0.005174  39.412100  -0.905079  -1.100910  59.131100  -0.000127  -0.005818  39.381300  -0.004379  -0.005227   2.999210  10.066500   4.544340   1.417150   0.522650   8.421870  -2.228810  -1.620080   0.989322  -0.000000   0.000000   0.000000   4.813730   7.612590   2.509810  -1.524000   5.087370  -6.688210  -0.542199  -4.856320  -1.876870   0.000000   0.000000   0.000000
 -2.618030  89.568000  -3.094350  -2.817580  -9.250830  -5.270500   0.619592   5.771340   0.071163   1.241470  11.543200   0.079848   1.773320   0.538162  -0.018931   2.914150   1.088050   6.275320  -3.478660  -0.966767   3.677760 -73.524900  26.343000  -3.452210  -2.200320  -6.008420 -17.669000  15.178400  -8.128560   4.482490  36.451900  30.732600 -60.726800 -34.525200   0.000626   0.000485 -12.262500   0.003945  -0.002352 -30.970400   5.281930  -8.720460 -25.669500  -0.004358  -0.008671 -17.968600  -0.002272  -0.013566 -28.720700   2.020850  -3.681670 -41.801400  -0.013920   0.005856 -27.839700  -0.005983  -0.003940 -28.577500   1.668900  -3.077850 -37.797700   0.004325   0.001349 -25.173700  -0.002539  -0.003405 -32.874400   0.705043  -1.090620 -49.320900   0.005832  -0.002941 -32.848300  -0.002156  -0.004861   9.407460   0.762072   9.449450  65.750300  23.856100  -3.459080  -1.620730  -1.558200  15.106500 -11.906500 -16.945400   2.091790 -39.926700  21.746000  59.269000  18.268800   0.015453  -0.005042   4.134400   0.005623  -0.001255  29.722300   8.633630  14.731700  25.233500   0.009071  -0.011821  17.663500   0.003096  -0.009645  32.854700   4.880350   7.502630  49.762400   0.000047  -0.003341  33.141700  -0.003276  -0.003517  28.789200   0.655385   1.192280  42.463000   0.006515  -0.004716  28.280400  -0.010955  -0.005034  39.455800  -0.917597  -1.114380  59.197000  -0.000097  -0.005689  39.425200  -0.004240  -0.005087   2.999910  10.183600   4.549400   1.414970   0.534418   8.406150  -2.213120  -1.616040   0.981344  -0.000000   0.000000   0.000000   4.867360   7.653800   2.521850  -1.588130   5.268820  -6.687560  -0.469087  -4.966770  -1.877220  -0.000000   0.000000   0.000000
